
nColumns=19
nRows=79
DataType=double
version=3
OpenSimVersion=4.4-2022-10-11-798caa840
endheader
time	ground_force_calcn_r_vx	ground_force_calcn_r_vy	ground_force_calcn_r_vz	ground_force_calcn_r_px	ground_force_calcn_r_py	ground_force_calcn_r_pz	ground_force_calcn_r_mx	ground_force_calcn_r_my	ground_force_calcn_r_mz	ground_force_calcn_l_vx	ground_force_calcn_l_vy	ground_force_calcn_l_vz	ground_force_calcn_l_px	ground_force_calcn_l_py	ground_force_calcn_l_pz	ground_force_calcn_l_mx	ground_force_calcn_l_my	ground_force_calcn_l_mz
0.31	2.65281	20.8126	6.07362	0.0471849	0	-0.189527	0.0758958	0.595441	0.173764	0	0	0	0	0	0	0	0	0
0.32	1.13713	36.2066	7.70049	0.07744189999999999	0	-0.194583	0.0172127	0.548055	0.116562	0	0	0	0	0	0	0	0	0
0.33	-1.15553	55.3204	9.44894	0.0946023	0	-0.196284	-0.0109438	0.523933	0.08948979999999999	0	0	0	0	0	0	0	0	0
0.34	-4.38381	78.3002	11.2393	0.105518	0	-0.196988	-0.0285397	0.509754	0.0731705	0	0	0	0	0	0	0	0	0
0.35	-8.702540000000001	105.065	12.9553	0.113541	0	-0.197314	-0.0412675	0.498217	0.0614342	0	0	0	0	0	0	0	0	0
0.36	-14.2132	135.279	14.4481	0.120061	0	-0.197457	-0.0509442	0.48488	0.0517862	0	0	0	0	0	0	0	0	0
0.37	-20.8551	168.441	15.5474	0.12575	0	-0.19748	-0.0576917	0.465961	0.043009	0	0	0	0	0	0	0	0	0
0.38	-28.4205	203.925	16.0741	0.130953	0	-0.197404	-0.0610715	0.438205	0.034541	0	0	0	0	0	0	0	0	0
0.39	-36.6475	240.959	15.8603	0.135864	0	-0.197244	-0.0607904	0.3997	0.0263088	0	0	0	0	0	0	0	0	0
0.4	-45.2544	278.667	14.7791	0.140588	0	-0.197015	-0.0570477	0.351288	0.0186305	0	0	0	0	0	0	0	0	0
0.41	-53.942	316.175	12.7832	0.145182	0	-0.196742	-0.050897	0.298327	0.0120616	0	0	0	0	0	0	0	0	0
0.42	-62.4119	352.708	9.937010000000001	0.149667	0	-0.196457	-0.0444144	0.250999	0.00707151	0	0	0	0	0	0	0	0	0
0.43	-70.38330000000001	387.65	6.42342	0.154039	0	-0.1962	-0.0403295	0.222123	0.0036806	0	0	0	0	0	0	0	0	0
0.44	-77.60680000000001	420.586	2.50692	0.158278	0	-0.196008	-0.041157	0.223048	0.00132949	0	0	0	0	0	0	0	0	0
0.45	-83.8892	451.311	-1.52555	0.162363	0	-0.195911	-0.0483304	0.26001	-0.000878905	0	0	0	0	0	0	0	0	0
0.46	-89.0979	479.77	-5.39942	0.16627	0	-0.195929	-0.0620756	0.334262	-0.00376184	0	0	0	0	0	0	0	0	0
0.47	-93.1478	505.932	-8.87201	0.16998	0	-0.196072	-0.081647	0.443466	-0.0077766	0	0	0	0	0	0	0	0	0
0.48	-96.0008	529.729	-11.7659	0.173477	0	-0.196335	-0.105445	0.5818410000000001	-0.0129233	0	0	0	0	0	0	0	0	0
0.49	-97.6712	551.042	-14	0.176765	0	-0.196704	-0.131289	0.740709	-0.0188188	0	0	0	0	0	0	0	0	0
0.5	-98.2225	569.708	-15.5868	0.179859	0	-0.197154	-0.156979	0.910504	-0.0249106	0	0	0	0	0	0	0	0	0
0.51	-97.7594	585.542	-16.6078	0.182786	0	-0.197655	-0.180711	1.08239	-0.0307	0	0	0	0	0	0	0	0	0
0.52	-96.4145	598.374	-17.188	0.18558	0	-0.198178	-0.20124	1.24895	-0.0358755	0	0	0	0	0	0	0	0	0
0.53	-94.33629999999999	608.083	-17.4654	0.188282	0	-0.1987	-0.217875	1.4044	-0.0403374	0	0	0	0	0	0	0	0	0
0.54	-91.6777	614.628	-17.5646	0.19093	0	-0.199202	-0.230357	1.54437	-0.0441342	0	0	0	0	0	0	0	0	0
0.55	-88.58410000000001	618.077	-17.5769	0.193563	0	-0.199669	-0.238695	1.66544	-0.0473619	0	0	0	0	0	0	0	0	0
0.5600000000000001	-85.1855	618.625	-17.5507	0.196214	0	-0.200098	-0.24301	1.76476	-0.0500672	0	0	0	0	0	0	0	0	0
0.57	-81.5912	616.6	-17.493	0.198907	0	-0.200488	-0.243436	1.83969	-0.0521923	0	0	0	0	0	0	0	0	0
0.58	-77.89019999999999	612.434	-17.3815	0.201663	0	-0.200844	-0.240064	1.88757	-0.0535712	0	0	0	0	0	0	0	0	0
0.59	-74.1529	606.63	-17.1815	0.20449	0	-0.201173	-0.232952	1.90573	-0.0539759	0	0	0	0	0	0	0	0	0
0.6	-70.4341	599.713	-16.862	0.207387	0	-0.20148	-0.222191	1.89185	-0.0531928	0	0	0	0	0	0	0	0	0
0.61	-66.7739	592.1849999999999	-16.4064	0.210349	0	-0.201772	-0.207959	1.84429	-0.0510956	0	0	0	0	0	0	0	0	0
0.62	-63.2002	584.499	-15.817	0.213365	0	-0.202052	-0.190563	1.7624	-0.0476919	0	0	0	0	0	0	0	0	0
0.63	-59.7295	577.026	-15.1145	0.216416	0	-0.202321	-0.170457	1.64673	-0.0431341	0	0	0	0	0	0	0	0	0
0.64	-56.3678	570.0549999999999	-14.3307	0.219488	0	-0.202579	-0.148227	1.49904	-0.0376846	0	0	0	0	0	0	0	0	0
0.65	-53.1112	563.79	-13.5013	0.22256	0	-0.202825	-0.124538	1.32201	-0.0316587	0	0	0	0	0	0	0	0	0
0.66	-49.9483	558.3630000000001	-12.66	0.225614	0	-0.203057	-0.100093	1.11892	-0.0253698	0	0	0	0	0	0	0	0	0
0.67	-46.8632	553.851	-11.8359	0.228634	0	-0.203273	-0.0756011	0.8934879999999999	-0.0190939	0	0	0	0	0	0	0	0	0
0.68	-43.8376	550.28	-11.054	0.231608	0	-0.203468	-0.0517483	0.649579	-0.0130487	0	0	0	0	0	0	0	0	0
0.6899999999999999	-40.8524	547.641	-10.3363	0.234526	0	-0.203642	-0.0291761	0.391116	-0.00738203	0	0	0	0	0	0	0	0	0
0.7	-37.8889	545.899	-9.700889999999999	0.237381	0	-0.20379	-0.008464670000000001	0.121958	-0.00216725	0	0	0	0	0	0	0	0	0
0.71	-34.9309	544.998	-9.16159	0.240171	0	-0.203911	0.00988675	-0.154255	0.00259307	0	0	0	0	0	0	0	0	0
0.72	-31.9652	544.873	-8.727919999999999	0.242901	0	-0.204005	0.0254744	-0.434231	0.00695563	0	0	0	0	0	0	0	0	0
0.73	-28.9821	545.457	-8.405279999999999	0.245573	0	-0.204066	0.0379938	-0.7150609999999999	0.0110188	0	0	0	0	0	0	0	0	0
0.74	-25.974	546.686	-8.19525	0.248195	0	-0.204099	0.0472284	-0.994036	0.0149014	0	0	0	0	0	0	0	0	0
0.75	-22.9338	548.505	-8.096030000000001	0.250774	0	-0.2041	0.0530419	-1.2686	0.0187247	0	0	0	0	0	0	0	0	0
0.76	-19.8525	550.862	-8.10327	0.253315	0	-0.204071	0.0553716	-1.53643	0.0226012	0	0	0	0	0	0	0	0	0
0.77	-16.7174	553.713	-8.211069999999999	0.255819	0	-0.204011	0.0542111	-1.79557	0.0266267	0	0	0	0	0	0	0	0	0
0.78	-13.5113	557.016	-8.4123	0.258287	0	-0.20392	0.0495882	-2.04432	0.0308742	0	0	0	0	0	0	0	0	0
0.79	-10.2121	560.7329999999999	-8.699	0.260715	0	-0.2038	0.0415452	-2.28119	0.0353895	0	0	0	0	0	0	0	0	0
0.8	-6.79406	564.825	-9.063739999999999	0.263098	0	-0.203655	0.0301298	-2.50484	0.0401952	0	0	0	0	0	0	0	0	0
0.8100000000000001	-3.22851	569.246	-9.50109	0.26543	0	-0.203483	0.015393	-2.71407	0.0452996	0	0	0	0	0	0	0	0	0
0.82	0.514063	573.946	-10.0082	0.267703	0	-0.203291	-0.00260432	-2.9077	0.050703	0	0	0	0	0	0	0	0	0
0.83	4.46159	578.872	-10.5837	0.269911	0	-0.203082	-0.0237737	-3.08453	0.0563957	0	0	0	0	0	0	0	0	0
0.84	8.637269999999999	583.967	-11.2259	0.272047	0	-0.202862	-0.0479735	-3.2435	0.0623516	0	0	0	0	0	0	0	0	0
0.85	13.0562	589.173	-11.9302	0.27411	0	-0.202638	-0.0749802	-3.38356	0.0685138	0	0	0	0	0	0	0	0	0
0.86	17.7236	594.426	-12.6861	0.276098	0	-0.20242	-0.104471	-3.50383	0.0747777	0	0	0	0	0	0	0	0	0
0.87	22.6339	599.65	-13.4767	0.278013	0	-0.202214	-0.136016	-3.60354	0.08098669999999999	0	0	0	0	0	0	0	0	0
0.88	27.7717	604.7569999999999	-14.2788	0.279859	0	-0.202028	-0.169092	-3.68215	0.0869383	0	0	0	0	0	0	0	0	0
0.89	33.1136	609.641	-15.0635	0.28164	0	-0.201866	-0.203114	-3.73944	0.0923969	0	0	0	0	0	0	0	0	0
0.9	38.63	614.178	-15.7989	0.283359	0	-0.201731	-0.237467	-3.7755	0.09711930000000001	0	0	0	0	0	0	0	0	0
0.91	44.2841	618.213	-16.4523	0.285018	0	-0.201623	-0.271533	-3.79064	0.100879	0	0	0	0	0	0	0	0	0
0.92	50.0325	621.551	-16.9922	0.286618	0	-0.201543	-0.304719	-3.78551	0.10349	0	0	0	0	0	0	0	0	0
0.93	55.8231	623.962	-17.3893	0.288161	0	-0.201488	-0.33649	-3.76111	0.104819	0	0	0	0	0	0	0	0	0
0.9399999999999999	61.5932	625.175	-17.6165	0.289648	0	-0.201454	-0.366379	-3.71876	0.104789	0	0	0	0	0	0	0	0	0
0.95	67.2668	624.891	-17.648	0.291082	0	-0.201441	-0.393991	-3.66008	0.103367	0	0	0	0	0	0	0	0	0
0.96	72.7525	622.79	-17.4586	0.292467	0	-0.201443	-0.419015	-3.58693	0.100552	0	0	0	0	0	0	0	0	0
0.97	77.944	618.534	-17.0251	0.29381	0	-0.20146	-0.441212	-3.50129	0.0963729	1.51759	24.5497	-4.436	0.739565	0	-0.28378	0.0235746	0.381359	-0.0689096
0.98	82.72069999999999	611.784	-16.3286	0.295114	0	-0.201487	-0.460394	-3.40497	0.0908789	-0.188776	41.076	-4.94701	0.765934	0	-0.295483	-0.00182614	0.397352	-0.0478553
0.99	86.9504	602.208	-15.3571	0.29639	0	-0.20152	-0.476382	-3.29936	0.0841382	-2.72827	61.3271	-5.42922	0.780389	0	-0.301018	-0.0165228	0.371406	-0.0328802
1	90.4932	589.503	-14.1109	0.297645	0	-0.201552	-0.488943	-3.18514	0.0762423	-6.26505	85.36369999999999	-5.83359	0.789846	0	-0.304107	-0.0237134	0.323105	-0.0220804
1.01	93.2068	573.415	-12.6065	0.298889	0	-0.201577	-0.497707	-3.06193	0.0673165	-10.9544	112.993	-6.09715	0.796793	0	-0.306019	-0.0251754	0.259682	-0.0140125
1.02	94.9551	553.756	-10.8801	0.300134	0	-0.201582	-0.502145	-2.92839	0.0575364	-16.8517	143.801	-6.14668	0.80236	0	-0.307301	-0.0218633	0.186566	-0.00797467
1.03	95.6183	530.436	-8.98775	0.301391	0	-0.201556	-0.501603	-2.78261	0.0471487	-23.7985	177.286	-5.89601	0.807113	0	-0.308237	-0.0147476	0.109862	-0.00365368
1.04	95.10209999999999	503.492	-7.00369	0.302676	0	-0.201486	-0.49536	-2.62255	0.0364803	-31.5185	212.819	-5.25488	0.811357	0	-0.308985	-0.00523579	0.035353	-0.000872929
1.05	93.3496	473.104	-5.01559	0.304003	0	-0.201356	-0.482726	-2.4465	0.0259365	-39.7142	249.549	-4.14318	0.8152740000000001	0	-0.309632	0.00511615	-0.0321479	0.000533742
1.06	90.3509	439.611	-3.11638	0.305392	0	-0.201155	-0.463199	-2.25374	0.0159766	-48.0765	286.449	-2.50463	0.81898	0	-0.31023	0.0150768	-0.0898307	0.000785453
1.07	86.1516	403.515	-1.39434	0.306865	0	-0.200869	-0.436653	-2.04519	0.00706712	-56.2942	322.456	-0.326083	0.822547	0	-0.310803	0.0242237	-0.138755	0.000140316
1.08	80.8566	365.468	0.07691439999999999	0.308445	0	-0.200493	-0.40347	-1.82367	-0.000383799	-64.0763	356.644	2.34395	0.826024	0	-0.311361	0.0331779	-0.184666	-0.00121367
1.09	74.6272	326.243	1.24889	0.310158	0	-0.200022	-0.364582	-1.59382	-0.00610129	-71.1797	388.358	5.39375	0.829441	0	-0.311899	0.043372	-0.236639	-0.00328658
